<svg width="48" height="48" viewBox="0 0 48 48" fill="none" xmlns="http://www.w3.org/2000/svg">
<g clip-path="url(#clip0_609_27889)">
<path d="M13.719 41V8.4704H26.2069C28.4483 8.4704 30.4277 8.86338 32.1451 9.64933C33.8917 10.4353 35.2598 11.5997 36.2495 13.1424C37.2393 14.6852 37.7341 16.5919 37.7341 18.8624C37.7341 21.0747 37.2247 22.9523 36.2059 24.4951C35.2162 26.0378 33.848 27.2168 32.1015 28.0318C30.384 28.8178 28.4192 29.2108 26.2069 29.2108H20.4869V41H13.719ZM20.4869 23.3161H26.2505C27.2111 23.3161 28.0407 23.1269 28.7394 22.7485C29.438 22.3701 29.9765 21.8461 30.3549 21.1766C30.7625 20.5071 30.9662 19.7357 30.9662 18.8624C30.9662 17.96 30.7625 17.1741 30.3549 16.5046C29.9765 15.835 29.438 15.3111 28.7394 14.9327C28.0407 14.5542 27.2111 14.365 26.2505 14.365H20.4869V23.3161Z" fill="#F95160"/>
</g>
<defs>
<clipPath id="clip0_609_27889">
<rect width="48" height="48" fill="white"/>
</clipPath>
</defs>
</svg>
