<svg width="55" height="56" viewBox="0 0 55 56" fill="none" xmlns="http://www.w3.org/2000/svg">
<path d="M20.6232 27.9948L25.2065 32.5781L35.519 22.2656M21.0859 47.7051C21.837 47.6058 22.5957 47.8095 23.1941 48.2704L25.9515 50.3863C26.863 51.0865 28.1309 51.0865 29.0399 50.3863L31.9017 48.1889C32.4363 47.779 33.1111 47.5982 33.7781 47.6873L37.3579 48.1584C38.496 48.3086 39.5934 47.6746 40.0339 46.6128L41.4113 43.2823C41.6684 42.6585 42.1624 42.1645 42.7862 41.9074L46.1165 40.5299C47.1782 40.0919 47.8121 38.9919 47.6619 37.8538L47.2087 34.4037C47.1094 33.6525 47.3131 32.8937 47.774 32.2954L49.8898 29.5378C50.5899 28.6263 50.5899 27.3582 49.8898 26.4492L47.6925 23.5873C47.2826 23.0526 47.1018 22.3778 47.1909 21.7107L47.6619 18.1307C47.8121 16.9926 47.1782 15.8951 46.1165 15.4546L42.7862 14.0771C42.1624 13.82 41.6684 13.326 41.4113 12.7022L40.0339 9.3717C39.5959 8.30992 38.496 7.67591 37.3579 7.82614L33.7781 8.29719C33.1111 8.38886 32.4363 8.20807 31.9042 7.80068L29.0424 5.60328C28.1309 4.90307 26.863 4.90307 25.954 5.60328L23.0922 7.80068C22.5575 8.20807 21.8828 8.38885 21.2157 8.30228L17.636 7.83123C16.4979 7.681 15.4005 8.31502 14.96 9.37679L13.5851 12.7073C13.3254 13.3285 12.8315 13.8225 12.2102 14.0822L8.87997 15.4572C7.81825 15.8977 7.18428 16.9951 7.3345 18.1333L7.80552 21.7133C7.89209 22.3804 7.71132 23.0551 7.30394 23.5873L5.10667 26.4492C4.4065 27.3608 4.4065 28.6288 5.10667 29.5378L7.30394 32.3998C7.71386 32.9345 7.89463 33.6092 7.80552 34.2763L7.3345 37.8563C7.18428 38.9945 7.81825 40.0919 8.87997 40.5324L12.2102 41.9099C12.834 42.1671 13.328 42.6611 13.5851 43.2849L14.9626 46.6153C15.4005 47.6771 16.5004 48.3111 17.6385 48.1609L21.0859 47.7051Z" stroke="#2A30EA" stroke-width="3.4375" stroke-linecap="round" stroke-linejoin="round"/>
</svg>
