<svg width="55" height="55" viewBox="0 0 55 55" fill="none" xmlns="http://www.w3.org/2000/svg">
<path d="M27.2841 34.1034L20.4635 27.2828M27.2841 34.1034C30.4599 32.8956 33.5066 31.3723 36.3783 29.5563M27.2841 34.1034V45.4711C27.2841 45.4711 34.173 44.2206 36.3783 40.924C38.8337 37.2409 36.3783 29.5563 36.3783 29.5563M20.4635 27.2828C21.6734 24.144 23.1968 21.1353 25.0106 18.3023C27.6597 14.0667 31.3484 10.5792 35.7258 8.17166C40.1032 5.76408 45.0238 4.51645 50.0195 4.54744C50.0195 10.7315 48.2461 21.599 36.3783 29.5563M20.4635 27.2828H9.09585C9.09585 27.2828 10.3463 20.394 13.6429 18.1887C17.3261 15.7332 25.0106 18.1887 25.0106 18.1887M10.2326 37.5137C6.82232 40.3784 5.68555 48.8814 5.68555 48.8814C5.68555 48.8814 14.1886 47.7446 17.0532 44.3343C18.6674 42.4246 18.6447 39.4917 16.8486 37.7183C15.9649 36.8749 14.8008 36.3875 13.5798 36.3497C12.3587 36.312 11.1668 36.7265 10.2326 37.5137Z" stroke="#2A30EA" stroke-width="3.4103" stroke-linecap="round" stroke-linejoin="round"/>
</svg>
