<svg width="55" height="55" viewBox="0 0 55 55" fill="none" xmlns="http://www.w3.org/2000/svg">
<path d="M27.2824 34.1034L20.4618 27.2828M27.2824 34.1034C30.4582 32.8956 33.5048 31.3723 36.3766 29.5563M27.2824 34.1034V45.4711C27.2824 45.4711 34.1712 44.2206 36.3766 40.924C38.832 37.2409 36.3766 29.5563 36.3766 29.5563M20.4618 27.2828C21.6717 24.144 23.1951 21.1353 25.0089 18.3023C27.658 14.0667 31.3467 10.5792 35.7241 8.17166C40.1015 5.76408 45.0221 4.51645 50.0178 4.54744C50.0178 10.7315 48.2444 21.599 36.3766 29.5563M20.4618 27.2828H9.09414C9.09414 27.2828 10.3446 20.394 13.6412 18.1887C17.3243 15.7332 25.0089 18.1887 25.0089 18.1887M10.2309 37.5137C6.82061 40.3784 5.68384 48.8814 5.68384 48.8814C5.68384 48.8814 14.1869 47.7446 17.0515 44.3343C18.6657 42.4246 18.643 39.4917 16.8469 37.7183C15.9632 36.8749 14.7991 36.3875 13.5781 36.3497C12.357 36.312 11.1651 36.7265 10.2309 37.5137Z" stroke="white" stroke-width="3.4103" stroke-linecap="round" stroke-linejoin="round"/>
</svg>
