<svg width="55" height="61" viewBox="0 0 55 61" fill="none" xmlns="http://www.w3.org/2000/svg">
<path d="M34.3749 26.6237H34.3978M20.6249 26.6237H20.6478M50.4166 33.4987C50.4166 46.1552 40.1565 56.4154 27.4999 56.4154C14.8434 56.4154 4.58325 46.1552 4.58325 33.4987C4.58325 20.8422 14.8434 10.582 27.4999 10.582C40.1565 10.582 50.4166 20.8422 50.4166 33.4987ZM35.5208 26.6237C35.5208 27.2565 35.0077 27.7695 34.3749 27.7695C33.7421 27.7695 33.2291 27.2565 33.2291 26.6237C33.2291 25.9909 33.7421 25.4779 34.3749 25.4779C35.0077 25.4779 35.5208 25.9909 35.5208 26.6237ZM21.7708 26.6237C21.7708 27.2565 21.2577 27.7695 20.6249 27.7695C19.9921 27.7695 19.4791 27.2565 19.4791 26.6237C19.4791 25.9909 19.9921 25.4779 20.6249 25.4779C21.2577 25.4779 21.7708 25.9909 21.7708 26.6237ZM27.4999 46.1029C33.2302 46.1029 37.8124 41.9022 37.8124 38.082H17.1874C17.1874 41.9022 21.7696 46.1029 27.4999 46.1029Z" stroke="white" stroke-width="3.4375" stroke-linecap="round" stroke-linejoin="round"/>
</svg>
