<?xml version="1.0" encoding="utf-8"?>
<!-- Generator: Adobe Illustrator 24.0.0, SVG Export Plug-In . SVG Version: 6.00 Build 0)  -->
<svg version="1.1" id="Lager_1" xmlns="http://www.w3.org/2000/svg" xmlns:xlink="http://www.w3.org/1999/xlink" x="0px" y="0px"
	 viewBox="0 0 22 22" style="enable-background:new 0 0 22 22;" xml:space="preserve">
<style type="text/css">
	.st0{fill:none;stroke:#FFFFFF;stroke-width:2;stroke-linecap:round;stroke-linejoin:round;}
</style>
<path class="st0" d="M3.5,21v-5 M3.5,6V1 M1,3.5h5 M1,18.5h5 M12,2l-1.7,4.5C10,7.2,9.8,7.6,9.6,7.9C9.4,8.2,9.2,8.4,8.9,8.6
	C8.6,8.8,8.2,9,7.5,9.3L3,11l4.5,1.7c0.7,0.3,1.1,0.4,1.4,0.6c0.3,0.2,0.5,0.4,0.7,0.7c0.2,0.3,0.4,0.7,0.6,1.4L12,20l1.7-4.5
	c0.3-0.7,0.4-1.1,0.6-1.4c0.2-0.3,0.4-0.5,0.7-0.7c0.3-0.2,0.7-0.4,1.4-0.6L21,11l-4.5-1.7c-0.7-0.3-1.1-0.4-1.4-0.6
	c-0.3-0.2-0.5-0.4-0.7-0.7c-0.2-0.3-0.4-0.7-0.6-1.4L12,2z"/>
</svg>
