<svg width="55" height="56" viewBox="0 0 55 56" fill="none" xmlns="http://www.w3.org/2000/svg">
<path d="M34.3732 21.2292H34.3961M20.6232 21.2292H20.6461M50.4149 28.1042C50.4149 40.7607 40.1547 51.0208 27.4982 51.0208C14.8417 51.0208 4.58154 40.7607 4.58154 28.1042C4.58154 15.4476 14.8417 5.1875 27.4982 5.1875C40.1547 5.1875 50.4149 15.4476 50.4149 28.1042ZM35.519 21.2292C35.519 21.862 35.006 22.375 34.3732 22.375C33.7404 22.375 33.2274 21.862 33.2274 21.2292C33.2274 20.5963 33.7404 20.0833 34.3732 20.0833C35.006 20.0833 35.519 20.5963 35.519 21.2292ZM21.769 21.2292C21.769 21.862 21.256 22.375 20.6232 22.375C19.9904 22.375 19.4774 21.862 19.4774 21.2292C19.4774 20.5963 19.9904 20.0833 20.6232 20.0833C21.256 20.0833 21.769 20.5963 21.769 21.2292ZM27.4982 40.7083C33.2285 40.7083 37.8107 36.5077 37.8107 32.6875H17.1857C17.1857 36.5077 21.7679 40.7083 27.4982 40.7083Z" stroke="#2A30EA" stroke-width="3.4375" stroke-linecap="round" stroke-linejoin="round"/>
</svg>
