<svg width="1439" height="85" viewBox="0 0 1439 85" fill="none" xmlns="http://www.w3.org/2000/svg">
<path fill-rule="evenodd" clip-rule="evenodd" d="M1438.98 84.7461L1438.98 40.5737C1419.45 14.4149 1393.18 0.0322836 1365.06 0.0322811C1336.94 0.0322787 1310.71 14.4148 1291.19 40.5413L1291.14 40.6062C1276.56 60.1362 1256.94 70.896 1235.95 70.896C1214.96 70.896 1195.38 60.1578 1180.81 40.6603C1180.81 40.6507 1180.8 40.6411 1180.8 40.6315C1180.79 40.6273 1180.79 40.6232 1180.79 40.619C1180.78 40.6111 1180.77 40.6032 1180.77 40.5954C1161.24 14.4364 1134.99 0.0215188 1106.85 0.0215164C1078.7 0.0215139 1052.45 14.4364 1032.92 40.5954L1032.85 40.6927C1018.28 60.1577 998.712 70.8852 977.73 70.8852C956.715 70.8852 937.116 60.1253 922.544 40.5954C903.02 14.4364 876.768 0.0214963 848.622 0.0214938C820.476 0.0214913 794.223 14.4364 774.7 40.5953L774.624 40.6926C760.053 60.1577 740.521 70.8851 719.505 70.8851C698.49 70.8851 678.891 60.1253 664.319 40.5953L664.261 40.5196C644.745 14.3932 618.51 0.0106094 590.389 0.010607C562.243 0.0106045 535.99 14.4256 516.467 40.5845L516.4 40.671C501.836 60.1469 482.287 70.8743 461.281 70.8743C440.274 70.8743 420.683 60.1253 406.111 40.6061C406.11 40.6046 406.109 40.6032 406.107 40.6017L406.101 40.5957L406.094 40.5887C406.09 40.5836 406.086 40.5786 406.086 40.5736C386.562 14.4039 360.285 -0.000216373 332.164 -0.000218831C304.043 -0.000221289 277.808 14.3931 258.284 40.5196L258.234 40.5845C243.654 60.1145 224.063 70.8743 203.047 70.8743C182.032 70.8743 162.433 60.1145 147.862 40.5845L147.803 40.5088C128.279 14.3823 102.043 -0.000238949 73.9225 -0.000241407C45.7764 -0.000243868 19.5241 14.4147 0.000370073 40.5736L0.000366211 84.746L1438.98 84.7461Z" fill="white"/>
</svg>
